<?xml version="1.0" encoding="utf-8" standalone="no"?>
<!DOCTYPE svg PUBLIC "-//W3C//DTD SVG 1.1//EN"
  "http://www.w3.org/Graphics/SVG/1.1/DTD/svg11.dtd">
<svg xmlns:xlink="http://www.w3.org/1999/xlink" width="407.10575pt" height="306.61975pt" viewBox="0 0 407.10575 306.61975" xmlns="http://www.w3.org/2000/svg" version="1.1">
 <metadata>
  <rdf:RDF xmlns:dc="http://purl.org/dc/elements/1.1/" xmlns:cc="http://creativecommons.org/ns#" xmlns:rdf="http://www.w3.org/1999/02/22-rdf-syntax-ns#">
   <cc:Work>
    <dc:type rdf:resource="http://purl.org/dc/dcmitype/StillImage"/>
    <dc:date>2024-12-18T13:45:08.168213</dc:date>
    <dc:format>image/svg+xml</dc:format>
    <dc:creator>
     <cc:Agent>
      <dc:title>Matplotlib v3.9.2, https://matplotlib.org/</dc:title>
     </cc:Agent>
    </dc:creator>
   </cc:Work>
  </rdf:RDF>
 </metadata>
 <defs>
  <style type="text/css">*{stroke-linejoin: round; stroke-linecap: butt}</style>
 </defs>
 <g id="figure_1">
  <g id="patch_1">
   <path d="M 0 306.61975 
L 407.10575 306.61975 
L 407.10575 0 
L 0 0 
z
" style="fill: #ffffff"/>
  </g>
  <g id="axes_1">
   <g id="patch_2">
    <path d="M 42.78575 273.312 
L 399.90575 273.312 
L 399.90575 7.2 
L 42.78575 7.2 
z
" style="fill: #d9d9d9"/>
   </g>
   <g id="matplotlib.axis_1">
    <g id="xtick_1">
     <g id="text_1">
      <!-- cs -->
      <g style="fill: #262626" transform="translate(52.954313 284.298625) scale(0.088 -0.088)">
       <defs>
        <path id="DejaVuSans-63" d="M 3122 3366 
L 3122 2828 
Q 2878 2963 2633 3030 
Q 2388 3097 2138 3097 
Q 1578 3097 1268 2742 
Q 959 2388 959 1747 
Q 959 1106 1268 751 
Q 1578 397 2138 397 
Q 2388 397 2633 464 
Q 2878 531 3122 666 
L 3122 134 
Q 2881 22 2623 -34 
Q 2366 -91 2075 -91 
Q 1284 -91 818 406 
Q 353 903 353 1747 
Q 353 2603 823 3093 
Q 1294 3584 2113 3584 
Q 2378 3584 2631 3529 
Q 2884 3475 3122 3366 
z
" transform="scale(0.015625)"/>
        <path id="DejaVuSans-73" d="M 2834 3397 
L 2834 2853 
Q 2591 2978 2328 3040 
Q 2066 3103 1784 3103 
Q 1356 3103 1142 2972 
Q 928 2841 928 2578 
Q 928 2378 1081 2264 
Q 1234 2150 1697 2047 
L 1894 2003 
Q 2506 1872 2764 1633 
Q 3022 1394 3022 966 
Q 3022 478 2636 193 
Q 2250 -91 1575 -91 
Q 1294 -91 989 -36 
Q 684 19 347 128 
L 347 722 
Q 666 556 975 473 
Q 1284 391 1588 391 
Q 1994 391 2212 530 
Q 2431 669 2431 922 
Q 2431 1156 2273 1281 
Q 2116 1406 1581 1522 
L 1381 1569 
Q 847 1681 609 1914 
Q 372 2147 372 2553 
Q 372 3047 722 3315 
Q 1072 3584 1716 3584 
Q 2034 3584 2315 3537 
Q 2597 3491 2834 3397 
z
" transform="scale(0.015625)"/>
       </defs>
       <use xlink:href="#DejaVuSans-63"/>
       <use xlink:href="#DejaVuSans-73" x="54.980469"/>
      </g>
     </g>
    </g>
    <g id="xtick_2">
     <g id="text_2">
      <!-- en -->
      <g style="fill: #262626" transform="translate(81.929875 284.298625) scale(0.088 -0.088)">
       <defs>
        <path id="DejaVuSans-65" d="M 3597 1894 
L 3597 1613 
L 953 1613 
Q 991 1019 1311 708 
Q 1631 397 2203 397 
Q 2534 397 2845 478 
Q 3156 559 3463 722 
L 3463 178 
Q 3153 47 2828 -22 
Q 2503 -91 2169 -91 
Q 1331 -91 842 396 
Q 353 884 353 1716 
Q 353 2575 817 3079 
Q 1281 3584 2069 3584 
Q 2775 3584 3186 3129 
Q 3597 2675 3597 1894 
z
M 3022 2063 
Q 3016 2534 2758 2815 
Q 2500 3097 2075 3097 
Q 1594 3097 1305 2825 
Q 1016 2553 972 2059 
L 3022 2063 
z
" transform="scale(0.015625)"/>
        <path id="DejaVuSans-6e" d="M 3513 2113 
L 3513 0 
L 2938 0 
L 2938 2094 
Q 2938 2591 2744 2837 
Q 2550 3084 2163 3084 
Q 1697 3084 1428 2787 
Q 1159 2491 1159 1978 
L 1159 0 
L 581 0 
L 581 3500 
L 1159 3500 
L 1159 2956 
Q 1366 3272 1645 3428 
Q 1925 3584 2291 3584 
Q 2894 3584 3203 3211 
Q 3513 2838 3513 2113 
z
" transform="scale(0.015625)"/>
       </defs>
       <use xlink:href="#DejaVuSans-65"/>
       <use xlink:href="#DejaVuSans-6e" x="61.523438"/>
      </g>
     </g>
    </g>
    <g id="xtick_3">
     <g id="text_3">
      <!-- et -->
      <g style="fill: #262626" transform="translate(112.753438 284.298625) scale(0.088 -0.088)">
       <defs>
        <path id="DejaVuSans-74" d="M 1172 4494 
L 1172 3500 
L 2356 3500 
L 2356 3053 
L 1172 3053 
L 1172 1153 
Q 1172 725 1289 603 
Q 1406 481 1766 481 
L 2356 481 
L 2356 0 
L 1766 0 
Q 1100 0 847 248 
Q 594 497 594 1153 
L 594 3053 
L 172 3053 
L 172 3500 
L 594 3500 
L 594 4494 
L 1172 4494 
z
" transform="scale(0.015625)"/>
       </defs>
       <use xlink:href="#DejaVuSans-65"/>
       <use xlink:href="#DejaVuSans-74" x="61.523438"/>
      </g>
     </g>
    </g>
    <g id="xtick_4">
     <g id="text_4">
      <!-- de -->
      <g style="fill: #262626" transform="translate(141.445063 284.298625) scale(0.088 -0.088)">
       <defs>
        <path id="DejaVuSans-64" d="M 2906 2969 
L 2906 4863 
L 3481 4863 
L 3481 0 
L 2906 0 
L 2906 525 
Q 2725 213 2448 61 
Q 2172 -91 1784 -91 
Q 1150 -91 751 415 
Q 353 922 353 1747 
Q 353 2572 751 3078 
Q 1150 3584 1784 3584 
Q 2172 3584 2448 3432 
Q 2725 3281 2906 2969 
z
M 947 1747 
Q 947 1113 1208 752 
Q 1469 391 1925 391 
Q 2381 391 2643 752 
Q 2906 1113 2906 1747 
Q 2906 2381 2643 2742 
Q 2381 3103 1925 3103 
Q 1469 3103 1208 2742 
Q 947 2381 947 1747 
z
" transform="scale(0.015625)"/>
       </defs>
       <use xlink:href="#DejaVuSans-64"/>
       <use xlink:href="#DejaVuSans-65" x="63.476562"/>
      </g>
     </g>
    </g>
    <g id="xtick_5">
     <g id="text_5">
      <!-- el -->
      <g style="fill: #262626" transform="translate(172.776 284.298625) scale(0.088 -0.088)">
       <defs>
        <path id="DejaVuSans-6c" d="M 603 4863 
L 1178 4863 
L 1178 0 
L 603 0 
L 603 4863 
z
" transform="scale(0.015625)"/>
       </defs>
       <use xlink:href="#DejaVuSans-65"/>
       <use xlink:href="#DejaVuSans-6c" x="61.523438"/>
      </g>
     </g>
    </g>
    <g id="xtick_6">
     <g id="text_6">
      <!-- is -->
      <g style="fill: #262626" transform="translate(202.95125 284.298625) scale(0.088 -0.088)">
       <defs>
        <path id="DejaVuSans-69" d="M 603 3500 
L 1178 3500 
L 1178 0 
L 603 0 
L 603 3500 
z
M 603 4863 
L 1178 4863 
L 1178 4134 
L 603 4134 
L 603 4863 
z
" transform="scale(0.015625)"/>
       </defs>
       <use xlink:href="#DejaVuSans-69"/>
       <use xlink:href="#DejaVuSans-73" x="27.783203"/>
      </g>
     </g>
    </g>
    <g id="xtick_7">
     <g id="text_7">
      <!-- it -->
      <g style="fill: #262626" transform="translate(233.278438 284.298625) scale(0.088 -0.088)">
       <use xlink:href="#DejaVuSans-69"/>
       <use xlink:href="#DejaVuSans-74" x="27.783203"/>
      </g>
     </g>
    </g>
    <g id="xtick_8">
     <g id="text_8">
      <!-- lv -->
      <g style="fill: #262626" transform="translate(262.159125 284.298625) scale(0.088 -0.088)">
       <defs>
        <path id="DejaVuSans-76" d="M 191 3500 
L 800 3500 
L 1894 563 
L 2988 3500 
L 3597 3500 
L 2284 0 
L 1503 0 
L 191 3500 
z
" transform="scale(0.015625)"/>
       </defs>
       <use xlink:href="#DejaVuSans-6c"/>
       <use xlink:href="#DejaVuSans-76" x="27.783203"/>
      </g>
     </g>
    </g>
    <g id="xtick_9">
     <g id="text_9">
      <!-- ru -->
      <g style="fill: #262626" transform="translate(291.148438 284.298625) scale(0.088 -0.088)">
       <defs>
        <path id="DejaVuSans-72" d="M 2631 2963 
Q 2534 3019 2420 3045 
Q 2306 3072 2169 3072 
Q 1681 3072 1420 2755 
Q 1159 2438 1159 1844 
L 1159 0 
L 581 0 
L 581 3500 
L 1159 3500 
L 1159 2956 
Q 1341 3275 1631 3429 
Q 1922 3584 2338 3584 
Q 2397 3584 2469 3576 
Q 2541 3569 2628 3553 
L 2631 2963 
z
" transform="scale(0.015625)"/>
        <path id="DejaVuSans-75" d="M 544 1381 
L 544 3500 
L 1119 3500 
L 1119 1403 
Q 1119 906 1312 657 
Q 1506 409 1894 409 
Q 2359 409 2629 706 
Q 2900 1003 2900 1516 
L 2900 3500 
L 3475 3500 
L 3475 0 
L 2900 0 
L 2900 538 
Q 2691 219 2414 64 
Q 2138 -91 1772 -91 
Q 1169 -91 856 284 
Q 544 659 544 1381 
z
M 1991 3584 
L 1991 3584 
z
" transform="scale(0.015625)"/>
       </defs>
       <use xlink:href="#DejaVuSans-72"/>
       <use xlink:href="#DejaVuSans-75" x="41.113281"/>
      </g>
     </g>
    </g>
    <g id="xtick_10">
     <g id="text_10">
      <!-- sl -->
      <g style="fill: #262626" transform="translate(321.99125 284.298625) scale(0.088 -0.088)">
       <use xlink:href="#DejaVuSans-73"/>
       <use xlink:href="#DejaVuSans-6c" x="52.099609"/>
      </g>
     </g>
    </g>
    <g id="xtick_11">
     <g id="text_11">
      <!-- sv -->
      <g style="fill: #262626" transform="translate(350.369375 284.298625) scale(0.088 -0.088)">
       <use xlink:href="#DejaVuSans-73"/>
       <use xlink:href="#DejaVuSans-76" x="52.099609"/>
      </g>
     </g>
    </g>
    <g id="xtick_12">
     <g id="text_12">
      <!-- uk -->
      <g style="fill: #262626" transform="translate(379.689375 284.298625) scale(0.088 -0.088)">
       <defs>
        <path id="DejaVuSans-6b" d="M 581 4863 
L 1159 4863 
L 1159 1991 
L 2875 3500 
L 3609 3500 
L 1753 1863 
L 3688 0 
L 2938 0 
L 1159 1709 
L 1159 0 
L 581 0 
L 581 4863 
z
" transform="scale(0.015625)"/>
       </defs>
       <use xlink:href="#DejaVuSans-75"/>
       <use xlink:href="#DejaVuSans-6b" x="63.378906"/>
      </g>
     </g>
    </g>
    <g id="text_13">
     <!-- Language -->
     <g style="fill: #262626" transform="translate(197.65625 297.42325) scale(0.096 -0.096)">
      <defs>
       <path id="DejaVuSans-4c" d="M 628 4666 
L 1259 4666 
L 1259 531 
L 3531 531 
L 3531 0 
L 628 0 
L 628 4666 
z
" transform="scale(0.015625)"/>
       <path id="DejaVuSans-61" d="M 2194 1759 
Q 1497 1759 1228 1600 
Q 959 1441 959 1056 
Q 959 750 1161 570 
Q 1363 391 1709 391 
Q 2188 391 2477 730 
Q 2766 1069 2766 1631 
L 2766 1759 
L 2194 1759 
z
M 3341 1997 
L 3341 0 
L 2766 0 
L 2766 531 
Q 2569 213 2275 61 
Q 1981 -91 1556 -91 
Q 1019 -91 701 211 
Q 384 513 384 1019 
Q 384 1609 779 1909 
Q 1175 2209 1959 2209 
L 2766 2209 
L 2766 2266 
Q 2766 2663 2505 2880 
Q 2244 3097 1772 3097 
Q 1472 3097 1187 3025 
Q 903 2953 641 2809 
L 641 3341 
Q 956 3463 1253 3523 
Q 1550 3584 1831 3584 
Q 2591 3584 2966 3190 
Q 3341 2797 3341 1997 
z
" transform="scale(0.015625)"/>
       <path id="DejaVuSans-67" d="M 2906 1791 
Q 2906 2416 2648 2759 
Q 2391 3103 1925 3103 
Q 1463 3103 1205 2759 
Q 947 2416 947 1791 
Q 947 1169 1205 825 
Q 1463 481 1925 481 
Q 2391 481 2648 825 
Q 2906 1169 2906 1791 
z
M 3481 434 
Q 3481 -459 3084 -895 
Q 2688 -1331 1869 -1331 
Q 1566 -1331 1297 -1286 
Q 1028 -1241 775 -1147 
L 775 -588 
Q 1028 -725 1275 -790 
Q 1522 -856 1778 -856 
Q 2344 -856 2625 -561 
Q 2906 -266 2906 331 
L 2906 616 
Q 2728 306 2450 153 
Q 2172 0 1784 0 
Q 1141 0 747 490 
Q 353 981 353 1791 
Q 353 2603 747 3093 
Q 1141 3584 1784 3584 
Q 2172 3584 2450 3431 
Q 2728 3278 2906 2969 
L 2906 3500 
L 3481 3500 
L 3481 434 
z
" transform="scale(0.015625)"/>
      </defs>
      <use xlink:href="#DejaVuSans-4c"/>
      <use xlink:href="#DejaVuSans-61" x="55.712891"/>
      <use xlink:href="#DejaVuSans-6e" x="116.992188"/>
      <use xlink:href="#DejaVuSans-67" x="180.371094"/>
      <use xlink:href="#DejaVuSans-75" x="243.847656"/>
      <use xlink:href="#DejaVuSans-61" x="307.226562"/>
      <use xlink:href="#DejaVuSans-67" x="368.505859"/>
      <use xlink:href="#DejaVuSans-65" x="431.982422"/>
     </g>
    </g>
   </g>
   <g id="matplotlib.axis_2">
    <g id="ytick_1">
     <g id="line2d_1">
      <path d="M 42.78575 265.736036 
L 399.90575 265.736036 
" clip-path="url(#p6994dc95ff)" style="fill: none; stroke: #ffffff; stroke-width: 0.8; stroke-linecap: round"/>
     </g>
     <g id="text_14">
      <!-- 0.0 -->
      <g style="fill: #262626" transform="translate(20.491 269.079349) scale(0.088 -0.088)">
       <defs>
        <path id="DejaVuSans-30" d="M 2034 4250 
Q 1547 4250 1301 3770 
Q 1056 3291 1056 2328 
Q 1056 1369 1301 889 
Q 1547 409 2034 409 
Q 2525 409 2770 889 
Q 3016 1369 3016 2328 
Q 3016 3291 2770 3770 
Q 2525 4250 2034 4250 
z
M 2034 4750 
Q 2819 4750 3233 4129 
Q 3647 3509 3647 2328 
Q 3647 1150 3233 529 
Q 2819 -91 2034 -91 
Q 1250 -91 836 529 
Q 422 1150 422 2328 
Q 422 3509 836 4129 
Q 1250 4750 2034 4750 
z
" transform="scale(0.015625)"/>
        <path id="DejaVuSans-2e" d="M 684 794 
L 1344 794 
L 1344 0 
L 684 0 
L 684 794 
z
" transform="scale(0.015625)"/>
       </defs>
       <use xlink:href="#DejaVuSans-30"/>
       <use xlink:href="#DejaVuSans-2e" x="63.623047"/>
       <use xlink:href="#DejaVuSans-30" x="95.410156"/>
      </g>
     </g>
    </g>
    <g id="ytick_2">
     <g id="line2d_2">
      <path d="M 42.78575 215.56409 
L 399.90575 215.56409 
" clip-path="url(#p6994dc95ff)" style="fill: none; stroke: #ffffff; stroke-width: 0.8; stroke-linecap: round"/>
     </g>
     <g id="text_15">
      <!-- 0.2 -->
      <g style="fill: #262626" transform="translate(20.491 218.907403) scale(0.088 -0.088)">
       <defs>
        <path id="DejaVuSans-32" d="M 1228 531 
L 3431 531 
L 3431 0 
L 469 0 
L 469 531 
Q 828 903 1448 1529 
Q 2069 2156 2228 2338 
Q 2531 2678 2651 2914 
Q 2772 3150 2772 3378 
Q 2772 3750 2511 3984 
Q 2250 4219 1831 4219 
Q 1534 4219 1204 4116 
Q 875 4013 500 3803 
L 500 4441 
Q 881 4594 1212 4672 
Q 1544 4750 1819 4750 
Q 2544 4750 2975 4387 
Q 3406 4025 3406 3419 
Q 3406 3131 3298 2873 
Q 3191 2616 2906 2266 
Q 2828 2175 2409 1742 
Q 1991 1309 1228 531 
z
" transform="scale(0.015625)"/>
       </defs>
       <use xlink:href="#DejaVuSans-30"/>
       <use xlink:href="#DejaVuSans-2e" x="63.623047"/>
       <use xlink:href="#DejaVuSans-32" x="95.410156"/>
      </g>
     </g>
    </g>
    <g id="ytick_3">
     <g id="line2d_3">
      <path d="M 42.78575 165.392145 
L 399.90575 165.392145 
" clip-path="url(#p6994dc95ff)" style="fill: none; stroke: #ffffff; stroke-width: 0.8; stroke-linecap: round"/>
     </g>
     <g id="text_16">
      <!-- 0.4 -->
      <g style="fill: #262626" transform="translate(20.491 168.735457) scale(0.088 -0.088)">
       <defs>
        <path id="DejaVuSans-34" d="M 2419 4116 
L 825 1625 
L 2419 1625 
L 2419 4116 
z
M 2253 4666 
L 3047 4666 
L 3047 1625 
L 3713 1625 
L 3713 1100 
L 3047 1100 
L 3047 0 
L 2419 0 
L 2419 1100 
L 313 1100 
L 313 1709 
L 2253 4666 
z
" transform="scale(0.015625)"/>
       </defs>
       <use xlink:href="#DejaVuSans-30"/>
       <use xlink:href="#DejaVuSans-2e" x="63.623047"/>
       <use xlink:href="#DejaVuSans-34" x="95.410156"/>
      </g>
     </g>
    </g>
    <g id="ytick_4">
     <g id="line2d_4">
      <path d="M 42.78575 115.220199 
L 399.90575 115.220199 
" clip-path="url(#p6994dc95ff)" style="fill: none; stroke: #ffffff; stroke-width: 0.8; stroke-linecap: round"/>
     </g>
     <g id="text_17">
      <!-- 0.6 -->
      <g style="fill: #262626" transform="translate(20.491 118.563512) scale(0.088 -0.088)">
       <defs>
        <path id="DejaVuSans-36" d="M 2113 2584 
Q 1688 2584 1439 2293 
Q 1191 2003 1191 1497 
Q 1191 994 1439 701 
Q 1688 409 2113 409 
Q 2538 409 2786 701 
Q 3034 994 3034 1497 
Q 3034 2003 2786 2293 
Q 2538 2584 2113 2584 
z
M 3366 4563 
L 3366 3988 
Q 3128 4100 2886 4159 
Q 2644 4219 2406 4219 
Q 1781 4219 1451 3797 
Q 1122 3375 1075 2522 
Q 1259 2794 1537 2939 
Q 1816 3084 2150 3084 
Q 2853 3084 3261 2657 
Q 3669 2231 3669 1497 
Q 3669 778 3244 343 
Q 2819 -91 2113 -91 
Q 1303 -91 875 529 
Q 447 1150 447 2328 
Q 447 3434 972 4092 
Q 1497 4750 2381 4750 
Q 2619 4750 2861 4703 
Q 3103 4656 3366 4563 
z
" transform="scale(0.015625)"/>
       </defs>
       <use xlink:href="#DejaVuSans-30"/>
       <use xlink:href="#DejaVuSans-2e" x="63.623047"/>
       <use xlink:href="#DejaVuSans-36" x="95.410156"/>
      </g>
     </g>
    </g>
    <g id="ytick_5">
     <g id="line2d_5">
      <path d="M 42.78575 65.048253 
L 399.90575 65.048253 
" clip-path="url(#p6994dc95ff)" style="fill: none; stroke: #ffffff; stroke-width: 0.8; stroke-linecap: round"/>
     </g>
     <g id="text_18">
      <!-- 0.8 -->
      <g style="fill: #262626" transform="translate(20.491 68.391566) scale(0.088 -0.088)">
       <defs>
        <path id="DejaVuSans-38" d="M 2034 2216 
Q 1584 2216 1326 1975 
Q 1069 1734 1069 1313 
Q 1069 891 1326 650 
Q 1584 409 2034 409 
Q 2484 409 2743 651 
Q 3003 894 3003 1313 
Q 3003 1734 2745 1975 
Q 2488 2216 2034 2216 
z
M 1403 2484 
Q 997 2584 770 2862 
Q 544 3141 544 3541 
Q 544 4100 942 4425 
Q 1341 4750 2034 4750 
Q 2731 4750 3128 4425 
Q 3525 4100 3525 3541 
Q 3525 3141 3298 2862 
Q 3072 2584 2669 2484 
Q 3125 2378 3379 2068 
Q 3634 1759 3634 1313 
Q 3634 634 3220 271 
Q 2806 -91 2034 -91 
Q 1263 -91 848 271 
Q 434 634 434 1313 
Q 434 1759 690 2068 
Q 947 2378 1403 2484 
z
M 1172 3481 
Q 1172 3119 1398 2916 
Q 1625 2713 2034 2713 
Q 2441 2713 2670 2916 
Q 2900 3119 2900 3481 
Q 2900 3844 2670 4047 
Q 2441 4250 2034 4250 
Q 1625 4250 1398 4047 
Q 1172 3844 1172 3481 
z
" transform="scale(0.015625)"/>
       </defs>
       <use xlink:href="#DejaVuSans-30"/>
       <use xlink:href="#DejaVuSans-2e" x="63.623047"/>
       <use xlink:href="#DejaVuSans-38" x="95.410156"/>
      </g>
     </g>
    </g>
    <g id="ytick_6">
     <g id="line2d_6">
      <path d="M 42.78575 14.876308 
L 399.90575 14.876308 
" clip-path="url(#p6994dc95ff)" style="fill: none; stroke: #ffffff; stroke-width: 0.8; stroke-linecap: round"/>
     </g>
     <g id="text_19">
      <!-- 1.0 -->
      <g style="fill: #262626" transform="translate(20.491 18.21962) scale(0.088 -0.088)">
       <defs>
        <path id="DejaVuSans-31" d="M 794 531 
L 1825 531 
L 1825 4091 
L 703 3866 
L 703 4441 
L 1819 4666 
L 2450 4666 
L 2450 531 
L 3481 531 
L 3481 0 
L 794 0 
L 794 531 
z
" transform="scale(0.015625)"/>
       </defs>
       <use xlink:href="#DejaVuSans-31"/>
       <use xlink:href="#DejaVuSans-2e" x="63.623047"/>
       <use xlink:href="#DejaVuSans-30" x="95.410156"/>
      </g>
     </g>
    </g>
    <g id="text_20">
     <!-- Scribendi -->
     <g style="fill: #262626" transform="translate(14.4945 162.67275) rotate(-90) scale(0.096 -0.096)">
      <defs>
       <path id="DejaVuSans-53" d="M 3425 4513 
L 3425 3897 
Q 3066 4069 2747 4153 
Q 2428 4238 2131 4238 
Q 1616 4238 1336 4038 
Q 1056 3838 1056 3469 
Q 1056 3159 1242 3001 
Q 1428 2844 1947 2747 
L 2328 2669 
Q 3034 2534 3370 2195 
Q 3706 1856 3706 1288 
Q 3706 609 3251 259 
Q 2797 -91 1919 -91 
Q 1588 -91 1214 -16 
Q 841 59 441 206 
L 441 856 
Q 825 641 1194 531 
Q 1563 422 1919 422 
Q 2459 422 2753 634 
Q 3047 847 3047 1241 
Q 3047 1584 2836 1778 
Q 2625 1972 2144 2069 
L 1759 2144 
Q 1053 2284 737 2584 
Q 422 2884 422 3419 
Q 422 4038 858 4394 
Q 1294 4750 2059 4750 
Q 2388 4750 2728 4690 
Q 3069 4631 3425 4513 
z
" transform="scale(0.015625)"/>
       <path id="DejaVuSans-62" d="M 3116 1747 
Q 3116 2381 2855 2742 
Q 2594 3103 2138 3103 
Q 1681 3103 1420 2742 
Q 1159 2381 1159 1747 
Q 1159 1113 1420 752 
Q 1681 391 2138 391 
Q 2594 391 2855 752 
Q 3116 1113 3116 1747 
z
M 1159 2969 
Q 1341 3281 1617 3432 
Q 1894 3584 2278 3584 
Q 2916 3584 3314 3078 
Q 3713 2572 3713 1747 
Q 3713 922 3314 415 
Q 2916 -91 2278 -91 
Q 1894 -91 1617 61 
Q 1341 213 1159 525 
L 1159 0 
L 581 0 
L 581 4863 
L 1159 4863 
L 1159 2969 
z
" transform="scale(0.015625)"/>
      </defs>
      <use xlink:href="#DejaVuSans-53"/>
      <use xlink:href="#DejaVuSans-63" x="63.476562"/>
      <use xlink:href="#DejaVuSans-72" x="118.457031"/>
      <use xlink:href="#DejaVuSans-69" x="159.570312"/>
      <use xlink:href="#DejaVuSans-62" x="187.353516"/>
      <use xlink:href="#DejaVuSans-65" x="250.830078"/>
      <use xlink:href="#DejaVuSans-6e" x="312.353516"/>
      <use xlink:href="#DejaVuSans-64" x="375.732422"/>
      <use xlink:href="#DejaVuSans-69" x="439.208984"/>
     </g>
    </g>
   </g>
   <g id="patch_3">
    <path d="M 45.76175 265.736036 
L 53.69775 265.736036 
L 53.69775 37.453683 
L 45.76175 37.453683 
z
" clip-path="url(#p6994dc95ff)" style="fill: #456382; stroke: #ffffff; stroke-width: 0.8; stroke-linejoin: miter"/>
   </g>
   <g id="patch_4">
    <path d="M 75.52175 265.736036 
L 83.45775 265.736036 
L 83.45775 19.893502 
L 75.52175 19.893502 
z
" clip-path="url(#p6994dc95ff)" style="fill: #456382; stroke: #ffffff; stroke-width: 0.8; stroke-linejoin: miter"/>
   </g>
   <g id="patch_5">
    <path d="M 105.28175 265.736036 
L 113.21775 265.736036 
L 113.21775 14.876308 
L 105.28175 14.876308 
z
" clip-path="url(#p6994dc95ff)" style="fill: #456382; stroke: #ffffff; stroke-width: 0.8; stroke-linejoin: miter"/>
   </g>
   <g id="patch_6">
    <path d="M 135.04175 265.736036 
L 142.97775 265.736036 
L 142.97775 24.910697 
L 135.04175 24.910697 
z
" clip-path="url(#p6994dc95ff)" style="fill: #456382; stroke: #ffffff; stroke-width: 0.8; stroke-linejoin: miter"/>
   </g>
   <g id="patch_7">
    <path d="M 164.80175 265.736036 
L 172.73775 265.736036 
L 172.73775 39.962281 
L 164.80175 39.962281 
z
" clip-path="url(#p6994dc95ff)" style="fill: #456382; stroke: #ffffff; stroke-width: 0.8; stroke-linejoin: miter"/>
   </g>
   <g id="patch_8">
    <path d="M 194.56175 265.736036 
L 202.49775 265.736036 
L 202.49775 82.608434 
L 194.56175 82.608434 
z
" clip-path="url(#p6994dc95ff)" style="fill: #456382; stroke: #ffffff; stroke-width: 0.8; stroke-linejoin: miter"/>
   </g>
   <g id="patch_9">
    <path d="M 224.32175 265.736036 
L 232.25775 265.736036 
L 232.25775 14.876308 
L 224.32175 14.876308 
z
" clip-path="url(#p6994dc95ff)" style="fill: #456382; stroke: #ffffff; stroke-width: 0.8; stroke-linejoin: miter"/>
   </g>
   <g id="patch_10">
    <path d="M 254.08175 265.736036 
L 262.01775 265.736036 
L 262.01775 14.876308 
L 254.08175 14.876308 
z
" clip-path="url(#p6994dc95ff)" style="fill: #456382; stroke: #ffffff; stroke-width: 0.8; stroke-linejoin: miter"/>
   </g>
   <g id="patch_11">
    <path d="M 283.84175 265.736036 
L 291.77775 265.736036 
L 291.77775 157.866353 
L 283.84175 157.866353 
z
" clip-path="url(#p6994dc95ff)" style="fill: #456382; stroke: #ffffff; stroke-width: 0.8; stroke-linejoin: miter"/>
   </g>
   <g id="patch_12">
    <path d="M 313.60175 265.736036 
L 321.53775 265.736036 
L 321.53775 14.876308 
L 313.60175 14.876308 
z
" clip-path="url(#p6994dc95ff)" style="fill: #456382; stroke: #ffffff; stroke-width: 0.8; stroke-linejoin: miter"/>
   </g>
   <g id="patch_13">
    <path d="M 343.36175 265.736036 
L 351.29775 265.736036 
L 351.29775 14.876308 
L 343.36175 14.876308 
z
" clip-path="url(#p6994dc95ff)" style="fill: #456382; stroke: #ffffff; stroke-width: 0.8; stroke-linejoin: miter"/>
   </g>
   <g id="patch_14">
    <path d="M 373.12175 265.736036 
L 381.05775 265.736036 
L 381.05775 65.048253 
L 373.12175 65.048253 
z
" clip-path="url(#p6994dc95ff)" style="fill: #456382; stroke: #ffffff; stroke-width: 0.8; stroke-linejoin: miter"/>
   </g>
   <g id="patch_15">
    <path d="M 53.69775 265.736036 
L 61.63375 265.736036 
L 61.63375 105.18581 
L 53.69775 105.18581 
z
" clip-path="url(#p6994dc95ff)" style="fill: #d16f1e; stroke: #ffffff; stroke-width: 0.8; stroke-linejoin: miter"/>
   </g>
   <g id="patch_16">
    <path d="M 83.45775 265.736036 
L 91.39375 265.736036 
L 91.39375 42.470878 
L 83.45775 42.470878 
z
" clip-path="url(#p6994dc95ff)" style="fill: #d16f1e; stroke: #ffffff; stroke-width: 0.8; stroke-linejoin: miter"/>
   </g>
   <g id="patch_17">
    <path d="M 113.21775 265.736036 
L 121.15375 265.736036 
L 121.15375 67.556851 
L 113.21775 67.556851 
z
" clip-path="url(#p6994dc95ff)" style="fill: #d16f1e; stroke: #ffffff; stroke-width: 0.8; stroke-linejoin: miter"/>
   </g>
   <g id="patch_18">
    <path d="M 142.97775 265.736036 
L 150.91375 265.736036 
L 150.91375 77.59124 
L 142.97775 77.59124 
z
" clip-path="url(#p6994dc95ff)" style="fill: #d16f1e; stroke: #ffffff; stroke-width: 0.8; stroke-linejoin: miter"/>
   </g>
   <g id="patch_19">
    <path d="M 172.73775 265.736036 
L 180.67375 265.736036 
L 180.67375 34.945086 
L 172.73775 34.945086 
z
" clip-path="url(#p6994dc95ff)" style="fill: #d16f1e; stroke: #ffffff; stroke-width: 0.8; stroke-linejoin: miter"/>
   </g>
   <g id="patch_20">
    <path d="M 202.49775 265.736036 
L 210.43375 265.736036 
L 210.43375 177.935131 
L 202.49775 177.935131 
z
" clip-path="url(#p6994dc95ff)" style="fill: #d16f1e; stroke: #ffffff; stroke-width: 0.8; stroke-linejoin: miter"/>
   </g>
   <g id="patch_21">
    <path d="M 232.25775 265.736036 
L 240.19375 265.736036 
L 240.19375 57.522462 
L 232.25775 57.522462 
z
" clip-path="url(#p6994dc95ff)" style="fill: #d16f1e; stroke: #ffffff; stroke-width: 0.8; stroke-linejoin: miter"/>
   </g>
   <g id="patch_22">
    <path d="M 262.01775 265.736036 
L 269.95375 265.736036 
L 269.95375 29.927891 
L 262.01775 29.927891 
z
" clip-path="url(#p6994dc95ff)" style="fill: #d16f1e; stroke: #ffffff; stroke-width: 0.8; stroke-linejoin: miter"/>
   </g>
   <g id="patch_23">
    <path d="M 291.77775 265.736036 
L 299.71375 265.736036 
L 299.71375 162.883548 
L 291.77775 162.883548 
z
" clip-path="url(#p6994dc95ff)" style="fill: #d16f1e; stroke: #ffffff; stroke-width: 0.8; stroke-linejoin: miter"/>
   </g>
   <g id="patch_24">
    <path d="M 321.53775 265.736036 
L 329.47375 265.736036 
L 329.47375 14.876308 
L 321.53775 14.876308 
z
" clip-path="url(#p6994dc95ff)" style="fill: #d16f1e; stroke: #ffffff; stroke-width: 0.8; stroke-linejoin: miter"/>
   </g>
   <g id="patch_25">
    <path d="M 351.29775 265.736036 
L 359.23375 265.736036 
L 359.23375 55.013864 
L 351.29775 55.013864 
z
" clip-path="url(#p6994dc95ff)" style="fill: #d16f1e; stroke: #ffffff; stroke-width: 0.8; stroke-linejoin: miter"/>
   </g>
   <g id="patch_26">
    <path d="M 381.05775 265.736036 
L 388.99375 265.736036 
L 388.99375 90.134226 
L 381.05775 90.134226 
z
" clip-path="url(#p6994dc95ff)" style="fill: #d16f1e; stroke: #ffffff; stroke-width: 0.8; stroke-linejoin: miter"/>
   </g>
   <g id="patch_27">
    <path d="M 61.63375 265.736036 
L 69.56975 265.736036 
L 69.56975 248.175855 
L 61.63375 248.175855 
z
" clip-path="url(#p6994dc95ff)" style="fill: #779160; stroke: #ffffff; stroke-width: 0.8; stroke-linejoin: miter"/>
   </g>
   <g id="patch_28">
    <path d="M 91.39375 265.736036 
L 99.32975 265.736036 
L 99.32975 180.443729 
L 91.39375 180.443729 
z
" clip-path="url(#p6994dc95ff)" style="fill: #779160; stroke: #ffffff; stroke-width: 0.8; stroke-linejoin: miter"/>
   </g>
   <g id="patch_29">
    <path d="M 121.15375 265.736036 
L 129.08975 265.736036 
L 129.08975 220.581285 
L 121.15375 220.581285 
z
" clip-path="url(#p6994dc95ff)" style="fill: #779160; stroke: #ffffff; stroke-width: 0.8; stroke-linejoin: miter"/>
   </g>
   <g id="patch_30">
    <path d="M 150.91375 265.736036 
L 158.84975 265.736036 
L 158.84975 155.357756 
L 150.91375 155.357756 
z
" clip-path="url(#p6994dc95ff)" style="fill: #779160; stroke: #ffffff; stroke-width: 0.8; stroke-linejoin: miter"/>
   </g>
   <g id="patch_31">
    <path d="M 180.67375 265.736036 
L 188.60975 265.736036 
L 188.60975 130.271783 
L 180.67375 130.271783 
z
" clip-path="url(#p6994dc95ff)" style="fill: #779160; stroke: #ffffff; stroke-width: 0.8; stroke-linejoin: miter"/>
   </g>
   <g id="patch_32">
    <path d="M 210.43375 265.736036 
L 218.36975 265.736036 
L 218.36975 270.753231 
L 210.43375 270.753231 
z
" clip-path="url(#p6994dc95ff)" style="fill: #779160; stroke: #ffffff; stroke-width: 0.8; stroke-linejoin: miter"/>
   </g>
   <g id="patch_33">
    <path d="M 240.19375 265.736036 
L 248.12975 265.736036 
L 248.12975 208.038299 
L 240.19375 208.038299 
z
" clip-path="url(#p6994dc95ff)" style="fill: #779160; stroke: #ffffff; stroke-width: 0.8; stroke-linejoin: miter"/>
   </g>
   <g id="patch_34">
    <path d="M 269.95375 265.736036 
L 277.88975 265.736036 
L 277.88975 192.986715 
L 269.95375 192.986715 
z
" clip-path="url(#p6994dc95ff)" style="fill: #779160; stroke: #ffffff; stroke-width: 0.8; stroke-linejoin: miter"/>
   </g>
   <g id="patch_35">
    <path d="M 299.71375 265.736036 
L 307.64975 265.736036 
L 307.64975 162.883548 
L 299.71375 162.883548 
z
" clip-path="url(#p6994dc95ff)" style="fill: #779160; stroke: #ffffff; stroke-width: 0.8; stroke-linejoin: miter"/>
   </g>
   <g id="patch_36">
    <path d="M 329.47375 265.736036 
L 337.40975 265.736036 
L 337.40975 162.883548 
L 329.47375 162.883548 
z
" clip-path="url(#p6994dc95ff)" style="fill: #779160; stroke: #ffffff; stroke-width: 0.8; stroke-linejoin: miter"/>
   </g>
   <g id="patch_37">
    <path d="M 359.23375 265.736036 
L 367.16975 265.736036 
L 367.16975 125.254588 
L 359.23375 125.254588 
z
" clip-path="url(#p6994dc95ff)" style="fill: #779160; stroke: #ffffff; stroke-width: 0.8; stroke-linejoin: miter"/>
   </g>
   <g id="patch_38">
    <path d="M 388.99375 265.736036 
L 396.92975 265.736036 
L 396.92975 110.203005 
L 388.99375 110.203005 
z
" clip-path="url(#p6994dc95ff)" style="fill: #779160; stroke: #ffffff; stroke-width: 0.8; stroke-linejoin: miter"/>
   </g>
   <g id="patch_39">
    <path d="M 57.66575 265.736036 
L 57.66575 265.736036 
L 57.66575 265.736036 
L 57.66575 265.736036 
z
" clip-path="url(#p6994dc95ff)" style="fill: #456382; stroke: #ffffff; stroke-width: 0.8; stroke-linejoin: miter"/>
   </g>
   <g id="patch_40">
    <path d="M 57.66575 265.736036 
L 57.66575 265.736036 
L 57.66575 265.736036 
L 57.66575 265.736036 
z
" clip-path="url(#p6994dc95ff)" style="fill: #d16f1e; stroke: #ffffff; stroke-width: 0.8; stroke-linejoin: miter"/>
   </g>
   <g id="patch_41">
    <path d="M 57.66575 265.736036 
L 57.66575 265.736036 
L 57.66575 265.736036 
L 57.66575 265.736036 
z
" clip-path="url(#p6994dc95ff)" style="fill: #779160; stroke: #ffffff; stroke-width: 0.8; stroke-linejoin: miter"/>
   </g>
   <g id="line2d_7">
    <path clip-path="url(#p6994dc95ff)" style="fill: none; stroke: #424242; stroke-width: 1.8; stroke-linecap: round"/>
   </g>
   <g id="line2d_8">
    <path clip-path="url(#p6994dc95ff)" style="fill: none; stroke: #424242; stroke-width: 1.8; stroke-linecap: round"/>
   </g>
   <g id="line2d_9">
    <path clip-path="url(#p6994dc95ff)" style="fill: none; stroke: #424242; stroke-width: 1.8; stroke-linecap: round"/>
   </g>
   <g id="line2d_10">
    <path clip-path="url(#p6994dc95ff)" style="fill: none; stroke: #424242; stroke-width: 1.8; stroke-linecap: round"/>
   </g>
   <g id="line2d_11">
    <path clip-path="url(#p6994dc95ff)" style="fill: none; stroke: #424242; stroke-width: 1.8; stroke-linecap: round"/>
   </g>
   <g id="line2d_12">
    <path clip-path="url(#p6994dc95ff)" style="fill: none; stroke: #424242; stroke-width: 1.8; stroke-linecap: round"/>
   </g>
   <g id="line2d_13">
    <path clip-path="url(#p6994dc95ff)" style="fill: none; stroke: #424242; stroke-width: 1.8; stroke-linecap: round"/>
   </g>
   <g id="line2d_14">
    <path clip-path="url(#p6994dc95ff)" style="fill: none; stroke: #424242; stroke-width: 1.8; stroke-linecap: round"/>
   </g>
   <g id="line2d_15">
    <path clip-path="url(#p6994dc95ff)" style="fill: none; stroke: #424242; stroke-width: 1.8; stroke-linecap: round"/>
   </g>
   <g id="line2d_16">
    <path clip-path="url(#p6994dc95ff)" style="fill: none; stroke: #424242; stroke-width: 1.8; stroke-linecap: round"/>
   </g>
   <g id="line2d_17">
    <path clip-path="url(#p6994dc95ff)" style="fill: none; stroke: #424242; stroke-width: 1.8; stroke-linecap: round"/>
   </g>
   <g id="line2d_18">
    <path clip-path="url(#p6994dc95ff)" style="fill: none; stroke: #424242; stroke-width: 1.8; stroke-linecap: round"/>
   </g>
   <g id="line2d_19">
    <path clip-path="url(#p6994dc95ff)" style="fill: none; stroke: #424242; stroke-width: 1.8; stroke-linecap: round"/>
   </g>
   <g id="line2d_20">
    <path clip-path="url(#p6994dc95ff)" style="fill: none; stroke: #424242; stroke-width: 1.8; stroke-linecap: round"/>
   </g>
   <g id="line2d_21">
    <path clip-path="url(#p6994dc95ff)" style="fill: none; stroke: #424242; stroke-width: 1.8; stroke-linecap: round"/>
   </g>
   <g id="line2d_22">
    <path clip-path="url(#p6994dc95ff)" style="fill: none; stroke: #424242; stroke-width: 1.8; stroke-linecap: round"/>
   </g>
   <g id="line2d_23">
    <path clip-path="url(#p6994dc95ff)" style="fill: none; stroke: #424242; stroke-width: 1.8; stroke-linecap: round"/>
   </g>
   <g id="line2d_24">
    <path clip-path="url(#p6994dc95ff)" style="fill: none; stroke: #424242; stroke-width: 1.8; stroke-linecap: round"/>
   </g>
   <g id="line2d_25">
    <path clip-path="url(#p6994dc95ff)" style="fill: none; stroke: #424242; stroke-width: 1.8; stroke-linecap: round"/>
   </g>
   <g id="line2d_26">
    <path clip-path="url(#p6994dc95ff)" style="fill: none; stroke: #424242; stroke-width: 1.8; stroke-linecap: round"/>
   </g>
   <g id="line2d_27">
    <path clip-path="url(#p6994dc95ff)" style="fill: none; stroke: #424242; stroke-width: 1.8; stroke-linecap: round"/>
   </g>
   <g id="line2d_28">
    <path clip-path="url(#p6994dc95ff)" style="fill: none; stroke: #424242; stroke-width: 1.8; stroke-linecap: round"/>
   </g>
   <g id="line2d_29">
    <path clip-path="url(#p6994dc95ff)" style="fill: none; stroke: #424242; stroke-width: 1.8; stroke-linecap: round"/>
   </g>
   <g id="line2d_30">
    <path clip-path="url(#p6994dc95ff)" style="fill: none; stroke: #424242; stroke-width: 1.8; stroke-linecap: round"/>
   </g>
   <g id="line2d_31">
    <path clip-path="url(#p6994dc95ff)" style="fill: none; stroke: #424242; stroke-width: 1.8; stroke-linecap: round"/>
   </g>
   <g id="line2d_32">
    <path clip-path="url(#p6994dc95ff)" style="fill: none; stroke: #424242; stroke-width: 1.8; stroke-linecap: round"/>
   </g>
   <g id="line2d_33">
    <path clip-path="url(#p6994dc95ff)" style="fill: none; stroke: #424242; stroke-width: 1.8; stroke-linecap: round"/>
   </g>
   <g id="line2d_34">
    <path clip-path="url(#p6994dc95ff)" style="fill: none; stroke: #424242; stroke-width: 1.8; stroke-linecap: round"/>
   </g>
   <g id="line2d_35">
    <path clip-path="url(#p6994dc95ff)" style="fill: none; stroke: #424242; stroke-width: 1.8; stroke-linecap: round"/>
   </g>
   <g id="line2d_36">
    <path clip-path="url(#p6994dc95ff)" style="fill: none; stroke: #424242; stroke-width: 1.8; stroke-linecap: round"/>
   </g>
   <g id="line2d_37">
    <path clip-path="url(#p6994dc95ff)" style="fill: none; stroke: #424242; stroke-width: 1.8; stroke-linecap: round"/>
   </g>
   <g id="line2d_38">
    <path clip-path="url(#p6994dc95ff)" style="fill: none; stroke: #424242; stroke-width: 1.8; stroke-linecap: round"/>
   </g>
   <g id="line2d_39">
    <path clip-path="url(#p6994dc95ff)" style="fill: none; stroke: #424242; stroke-width: 1.8; stroke-linecap: round"/>
   </g>
   <g id="line2d_40">
    <path clip-path="url(#p6994dc95ff)" style="fill: none; stroke: #424242; stroke-width: 1.8; stroke-linecap: round"/>
   </g>
   <g id="line2d_41">
    <path clip-path="url(#p6994dc95ff)" style="fill: none; stroke: #424242; stroke-width: 1.8; stroke-linecap: round"/>
   </g>
   <g id="line2d_42">
    <path clip-path="url(#p6994dc95ff)" style="fill: none; stroke: #424242; stroke-width: 1.8; stroke-linecap: round"/>
   </g>
   <g id="patch_42">
    <path d="M 42.78575 273.312 
L 42.78575 7.2 
" style="fill: none; stroke: #ffffff; stroke-linejoin: miter; stroke-linecap: square"/>
   </g>
   <g id="patch_43">
    <path d="M 399.90575 273.312 
L 399.90575 7.2 
" style="fill: none; stroke: #ffffff; stroke-linejoin: miter; stroke-linecap: square"/>
   </g>
   <g id="patch_44">
    <path d="M 42.78575 273.312 
L 399.90575 273.312 
" style="fill: none; stroke: #ffffff; stroke-linejoin: miter; stroke-linecap: square"/>
   </g>
   <g id="patch_45">
    <path d="M 42.78575 7.2 
L 399.90575 7.2 
" style="fill: none; stroke: #ffffff; stroke-linejoin: miter; stroke-linecap: square"/>
   </g>
   <g id="legend_1">
    <g id="patch_46">
     <path d="M 290.95855 257.34528 
L 385.931175 257.34528 
Q 387.691175 257.34528 387.691175 255.58528 
L 387.691175 217.71503 
Q 387.691175 215.95503 385.931175 215.95503 
L 290.95855 215.95503 
Q 289.19855 215.95503 289.19855 217.71503 
L 289.19855 255.58528 
Q 289.19855 257.34528 290.95855 257.34528 
z
" style="fill: #d9d9d9; opacity: 0.8; stroke: #cccccc; stroke-width: 0.8; stroke-linejoin: miter"/>
    </g>
    <g id="patch_47">
     <path d="M 292.71855 226.161655 
L 310.31855 226.161655 
L 310.31855 220.001655 
L 292.71855 220.001655 
z
" style="fill: #456382; stroke: #ffffff; stroke-width: 0.8; stroke-linejoin: miter"/>
    </g>
    <g id="text_21">
     <!-- UAM-CSI -->
     <g style="fill: #262626" transform="translate(317.35855 226.161655) scale(0.088 -0.088)">
      <defs>
       <path id="DejaVuSans-55" d="M 556 4666 
L 1191 4666 
L 1191 1831 
Q 1191 1081 1462 751 
Q 1734 422 2344 422 
Q 2950 422 3222 751 
Q 3494 1081 3494 1831 
L 3494 4666 
L 4128 4666 
L 4128 1753 
Q 4128 841 3676 375 
Q 3225 -91 2344 -91 
Q 1459 -91 1007 375 
Q 556 841 556 1753 
L 556 4666 
z
" transform="scale(0.015625)"/>
       <path id="DejaVuSans-41" d="M 2188 4044 
L 1331 1722 
L 3047 1722 
L 2188 4044 
z
M 1831 4666 
L 2547 4666 
L 4325 0 
L 3669 0 
L 3244 1197 
L 1141 1197 
L 716 0 
L 50 0 
L 1831 4666 
z
" transform="scale(0.015625)"/>
       <path id="DejaVuSans-4d" d="M 628 4666 
L 1569 4666 
L 2759 1491 
L 3956 4666 
L 4897 4666 
L 4897 0 
L 4281 0 
L 4281 4097 
L 3078 897 
L 2444 897 
L 1241 4097 
L 1241 0 
L 628 0 
L 628 4666 
z
" transform="scale(0.015625)"/>
       <path id="DejaVuSans-2d" d="M 313 2009 
L 1997 2009 
L 1997 1497 
L 313 1497 
L 313 2009 
z
" transform="scale(0.015625)"/>
       <path id="DejaVuSans-43" d="M 4122 4306 
L 4122 3641 
Q 3803 3938 3442 4084 
Q 3081 4231 2675 4231 
Q 1875 4231 1450 3742 
Q 1025 3253 1025 2328 
Q 1025 1406 1450 917 
Q 1875 428 2675 428 
Q 3081 428 3442 575 
Q 3803 722 4122 1019 
L 4122 359 
Q 3791 134 3420 21 
Q 3050 -91 2638 -91 
Q 1578 -91 968 557 
Q 359 1206 359 2328 
Q 359 3453 968 4101 
Q 1578 4750 2638 4750 
Q 3056 4750 3426 4639 
Q 3797 4528 4122 4306 
z
" transform="scale(0.015625)"/>
       <path id="DejaVuSans-49" d="M 628 4666 
L 1259 4666 
L 1259 0 
L 628 0 
L 628 4666 
z
" transform="scale(0.015625)"/>
      </defs>
      <use xlink:href="#DejaVuSans-55"/>
      <use xlink:href="#DejaVuSans-41" x="73.193359"/>
      <use xlink:href="#DejaVuSans-4d" x="141.601562"/>
      <use xlink:href="#DejaVuSans-2d" x="227.880859"/>
      <use xlink:href="#DejaVuSans-43" x="263.964844"/>
      <use xlink:href="#DejaVuSans-53" x="333.789062"/>
      <use xlink:href="#DejaVuSans-49" x="397.265625"/>
     </g>
    </g>
    <g id="patch_48">
     <path d="M 292.71855 239.078405 
L 310.31855 239.078405 
L 310.31855 232.918405 
L 292.71855 232.918405 
z
" style="fill: #d16f1e; stroke: #ffffff; stroke-width: 0.8; stroke-linejoin: miter"/>
    </g>
    <g id="text_22">
     <!-- Llama Baseline -->
     <g style="fill: #262626" transform="translate(317.35855 239.078405) scale(0.088 -0.088)">
      <defs>
       <path id="DejaVuSans-6d" d="M 3328 2828 
Q 3544 3216 3844 3400 
Q 4144 3584 4550 3584 
Q 5097 3584 5394 3201 
Q 5691 2819 5691 2113 
L 5691 0 
L 5113 0 
L 5113 2094 
Q 5113 2597 4934 2840 
Q 4756 3084 4391 3084 
Q 3944 3084 3684 2787 
Q 3425 2491 3425 1978 
L 3425 0 
L 2847 0 
L 2847 2094 
Q 2847 2600 2669 2842 
Q 2491 3084 2119 3084 
Q 1678 3084 1418 2786 
Q 1159 2488 1159 1978 
L 1159 0 
L 581 0 
L 581 3500 
L 1159 3500 
L 1159 2956 
Q 1356 3278 1631 3431 
Q 1906 3584 2284 3584 
Q 2666 3584 2933 3390 
Q 3200 3197 3328 2828 
z
" transform="scale(0.015625)"/>
       <path id="DejaVuSans-20" transform="scale(0.015625)"/>
       <path id="DejaVuSans-42" d="M 1259 2228 
L 1259 519 
L 2272 519 
Q 2781 519 3026 730 
Q 3272 941 3272 1375 
Q 3272 1813 3026 2020 
Q 2781 2228 2272 2228 
L 1259 2228 
z
M 1259 4147 
L 1259 2741 
L 2194 2741 
Q 2656 2741 2882 2914 
Q 3109 3088 3109 3444 
Q 3109 3797 2882 3972 
Q 2656 4147 2194 4147 
L 1259 4147 
z
M 628 4666 
L 2241 4666 
Q 2963 4666 3353 4366 
Q 3744 4066 3744 3513 
Q 3744 3084 3544 2831 
Q 3344 2578 2956 2516 
Q 3422 2416 3680 2098 
Q 3938 1781 3938 1306 
Q 3938 681 3513 340 
Q 3088 0 2303 0 
L 628 0 
L 628 4666 
z
" transform="scale(0.015625)"/>
      </defs>
      <use xlink:href="#DejaVuSans-4c"/>
      <use xlink:href="#DejaVuSans-6c" x="55.712891"/>
      <use xlink:href="#DejaVuSans-61" x="83.496094"/>
      <use xlink:href="#DejaVuSans-6d" x="144.775391"/>
      <use xlink:href="#DejaVuSans-61" x="242.1875"/>
      <use xlink:href="#DejaVuSans-20" x="303.466797"/>
      <use xlink:href="#DejaVuSans-42" x="335.253906"/>
      <use xlink:href="#DejaVuSans-61" x="403.857422"/>
      <use xlink:href="#DejaVuSans-73" x="465.136719"/>
      <use xlink:href="#DejaVuSans-65" x="517.236328"/>
      <use xlink:href="#DejaVuSans-6c" x="578.759766"/>
      <use xlink:href="#DejaVuSans-69" x="606.542969"/>
      <use xlink:href="#DejaVuSans-6e" x="634.326172"/>
      <use xlink:href="#DejaVuSans-65" x="697.705078"/>
     </g>
    </g>
    <g id="patch_49">
     <path d="M 292.71855 251.995155 
L 310.31855 251.995155 
L 310.31855 245.835155 
L 292.71855 245.835155 
z
" style="fill: #779160; stroke: #ffffff; stroke-width: 0.8; stroke-linejoin: miter"/>
    </g>
    <g id="text_23">
     <!-- Rum-Cull -->
     <g style="fill: #262626" transform="translate(317.35855 251.995155) scale(0.088 -0.088)">
      <defs>
       <path id="DejaVuSans-52" d="M 2841 2188 
Q 3044 2119 3236 1894 
Q 3428 1669 3622 1275 
L 4263 0 
L 3584 0 
L 2988 1197 
Q 2756 1666 2539 1819 
Q 2322 1972 1947 1972 
L 1259 1972 
L 1259 0 
L 628 0 
L 628 4666 
L 2053 4666 
Q 2853 4666 3247 4331 
Q 3641 3997 3641 3322 
Q 3641 2881 3436 2590 
Q 3231 2300 2841 2188 
z
M 1259 4147 
L 1259 2491 
L 2053 2491 
Q 2509 2491 2742 2702 
Q 2975 2913 2975 3322 
Q 2975 3731 2742 3939 
Q 2509 4147 2053 4147 
L 1259 4147 
z
" transform="scale(0.015625)"/>
      </defs>
      <use xlink:href="#DejaVuSans-52"/>
      <use xlink:href="#DejaVuSans-75" x="64.982422"/>
      <use xlink:href="#DejaVuSans-6d" x="128.361328"/>
      <use xlink:href="#DejaVuSans-2d" x="225.773438"/>
      <use xlink:href="#DejaVuSans-43" x="261.857422"/>
      <use xlink:href="#DejaVuSans-75" x="331.681641"/>
      <use xlink:href="#DejaVuSans-6c" x="395.060547"/>
      <use xlink:href="#DejaVuSans-6c" x="422.84375"/>
     </g>
    </g>
   </g>
  </g>
 </g>
 <defs>
  <clipPath id="p6994dc95ff">
   <rect x="42.78575" y="7.2" width="357.12" height="266.112"/>
  </clipPath>
 </defs>
</svg>
